<svg width="30" height="30" viewBox="0 0 30 30" fill="none" xmlns="http://www.w3.org/2000/svg">
<path d="M23.425 24.2969C23.3 24.3469 23.1875 24.3719 23.0625 24.3719H10.225C9.7125 24.3719 9.2875 23.9469 9.2875 23.4344C9.2875 22.9219 9.7125 22.4969 10.225 22.4969H20.8L4.9 6.59689C4.5375 6.23439 4.5375 5.63439 4.9 5.27189C5.2625 4.90939 5.8625 4.90939 6.225 5.27189L22.125 21.1719V10.5969C22.125 10.0844 22.55 9.65939 23.0625 9.65939C23.575 9.65939 24 10.0844 24 10.5969V23.4344C24 23.5594 23.975 23.6719 23.925 23.7969C23.8375 24.0219 23.65 24.2094 23.425 24.2969Z" fill="#0D1622"/>
</svg>
