<svg width="30" height="30" viewBox="0 0 30 30" fill="none" xmlns="http://www.w3.org/2000/svg">
<path d="M11.0137 5.41219C11.0137 5.41219 10.7043 4.6875 10.2318 4.6875C9.76683 4.6875 9.52495 4.90219 9.3637 5.05031C9.20245 5.19844 6.50433 7.41562 6.50433 7.41562C6.50433 7.41562 5.71964 8.10094 5.77964 9.39C5.83027 10.6791 6.08245 12.5137 7.3912 15.0694C8.69058 17.6194 11.9428 21.5156 13.9978 22.8853C13.9978 22.8853 15.9018 24.3459 17.6737 24.9394C18.1884 25.1016 19.2178 25.3125 19.4578 25.3125C19.7015 25.3125 20.1318 25.3125 20.6259 24.9516C21.1284 24.5869 23.9475 22.32 23.9475 22.32C23.9475 22.32 24.6375 21.6966 23.8359 20.9719C23.0306 20.2472 20.5856 18.6356 20.0625 18.2119C19.5384 17.7816 18.7921 17.9709 18.4696 18.2625C18.1481 18.5559 17.5734 19.0387 17.5031 19.0997C17.3981 19.1803 17.1103 19.4419 16.7878 19.3116C16.3771 19.1494 14.6934 18.2353 13.1325 16.0997C11.5809 13.9659 11.4103 13.2684 11.1787 12.5147C11.1394 12.4033 11.1389 12.2818 11.1772 12.1701C11.2154 12.0583 11.2903 11.9627 11.3896 11.8988C11.6221 11.7375 12.4781 11.0241 12.4781 11.0241C12.4781 11.0241 13.0321 10.4775 12.8006 9.83344C12.569 9.18938 11.0137 5.41219 11.0137 5.41219Z" fill="white"/>
</svg>
