<svg width="22" height="30" viewBox="0 0 22 30" fill="none" xmlns="http://www.w3.org/2000/svg">
<path d="M11 0C5.37314 0 0.811035 4.56205 0.811035 10.1898C0.811035 16.0913 5.49947 19.7809 8.03547 24.1772C10.4617 28.3832 10.4598 30 11 30C11.5401 30 11.5383 28.3832 13.9645 24.1772C16.5014 19.7809 21.1889 16.0913 21.1889 10.1898C21.1889 4.56205 16.6268 0 11 0ZM11 14.0863C8.84758 14.0863 7.10254 12.3413 7.10254 10.1898C7.10254 8.03648 8.84752 6.2915 11 6.2915C13.1524 6.2915 14.8974 8.03648 14.8974 10.1898C14.8974 12.3413 13.1523 14.0863 11 14.0863Z" fill="white"/>
</svg>
