<svg width="45" height="51" viewBox="0 0 45 51" fill="none" xmlns="http://www.w3.org/2000/svg">
<path d="M3.92378 0.5H30.4951L44.3944 14.307V47.143C44.3944 48.6018 43.2079 49.7858 41.7429 49.7858H3.92378C2.45874 49.7858 1.27222 48.6018 1.27222 47.143V3.14283C1.27222 1.68408 2.45888 0.5 3.92378 0.5Z" fill="white" stroke="#0D1622"/>
<path d="M33.073 23.8273C33.6009 23.8273 33.8593 23.3684 33.8593 22.9237C33.8593 22.4633 33.5898 22.0186 33.073 22.0186H30.0663C29.4785 22.0186 29.1508 22.5041 29.1508 23.04V30.4084C29.1508 31.0653 29.5258 31.4298 30.0332 31.4298C30.5375 31.4298 30.9142 31.0653 30.9142 30.4084V28.386H32.7327C33.2968 28.386 33.5789 27.9255 33.5789 27.4683C33.5789 27.0205 33.2968 26.5757 32.7327 26.5757H30.9142V23.8273H33.073ZM22.9106 22.0186H20.7108C20.1135 22.0186 19.6896 22.4272 19.6896 23.0336V30.4147C19.6896 31.1674 20.2994 31.4032 20.7359 31.4032H23.0445C25.7769 31.4032 27.5812 29.6102 27.5812 26.8428C27.5797 23.9169 25.881 22.0186 22.9106 22.0186ZM23.0163 29.5835H21.6752V23.8383H22.8839C24.7135 23.8383 25.5091 25.0625 25.5091 26.7517C25.5091 28.3327 24.7275 29.5835 23.0163 29.5835ZM14.9576 22.0186H12.7783C12.1621 22.0186 11.8186 22.4239 11.8186 23.04V30.4084C11.8186 31.0653 12.2125 31.4298 12.7419 31.4298C13.2714 31.4298 13.6653 31.0653 13.6653 30.4084V28.2571H15.0315C16.7176 28.2571 18.109 27.0659 18.109 25.1503C18.1092 23.2758 16.7666 22.0186 14.9576 22.0186ZM14.9214 26.5287H13.6655V23.7487H14.9214C15.6967 23.7487 16.1899 24.3521 16.1899 25.1394C16.1883 25.9253 15.6967 26.5287 14.9214 26.5287Z" fill="#1F6ED7"/>
</svg>
